<svg width="409" height="109" viewBox="0 0 409 109" fill="none" xmlns="http://www.w3.org/2000/svg">
<path fill-rule="evenodd" clip-rule="evenodd" d="M155.43 31.81L204.16 0L253.05 31.81H248.03L211.59 9.26L180 31.81H155.43Z" fill="#EAB361"/>
<path d="M14.4698 64.1297C14.4698 67.3197 14.4698 70.0597 14.6398 71.5597C14.7398 72.5297 14.9498 73.2997 15.9898 73.4297C16.4798 73.4997 17.2398 73.5697 17.7598 73.5697C18.1398 73.5697 18.3198 73.6697 18.3198 73.8497C18.3198 74.0897 18.0398 74.1997 17.6598 74.1997C15.3698 74.1997 13.1798 74.0997 12.2098 74.0997C11.4098 74.0997 9.22982 74.1997 7.83982 74.1997C7.38982 74.1997 7.14982 74.0997 7.14982 73.8497C7.14982 73.6797 7.28982 73.5697 7.70982 73.5697C8.22982 73.5697 8.64982 73.4997 8.95982 73.4297C9.64982 73.2897 9.85983 72.5297 9.96982 71.5197C10.1398 70.0597 10.1398 67.3197 10.1398 64.1297V49.8997C8.81983 49.9297 6.66982 49.9997 4.96982 50.0397C2.95982 50.1097 2.11982 50.2797 1.59982 51.0497C1.24982 51.5697 1.07982 51.9897 1.00982 52.2597C0.939824 52.5397 0.839824 52.6797 0.629824 52.6797C0.389824 52.6797 0.319824 52.5097 0.319824 52.1197C0.319824 51.5597 0.979824 48.4097 1.04982 48.1297C1.14982 47.6797 1.25982 47.4697 1.46982 47.4697C1.74982 47.4697 2.08982 47.8197 2.95982 47.8897C3.96982 47.9897 5.28982 48.0597 6.42982 48.0597H20.1698C21.2798 48.0597 22.0398 47.9597 22.5598 47.8897C23.0798 47.7897 23.3598 47.7197 23.4998 47.7197C23.7398 47.7197 23.7798 47.9297 23.7798 48.4497C23.7798 49.1797 23.6798 51.5697 23.6798 52.4797C23.6498 52.8297 23.5798 53.0397 23.3698 53.0397C23.0898 53.0397 23.0198 52.8697 22.9898 52.3497C22.9898 52.2497 22.9598 52.0697 22.9598 51.9697C22.8898 51.0697 21.9498 50.0997 18.8698 50.0297C17.9698 49.9997 16.5398 49.9597 14.4998 49.9297V64.1597L14.4698 64.1297Z" fill="#F9F2E8"/>
<path d="M47.8898 58.9902C47.9898 58.9902 48.0998 58.9202 48.0998 58.7502V58.0202C48.0998 52.7502 48.0998 51.7702 48.0298 50.6602C47.9598 49.4802 47.6798 48.9202 46.5398 48.6802C46.2598 48.6102 45.6698 48.5802 45.1898 48.5802C44.8098 48.5802 44.5998 48.5102 44.5998 48.2702C44.5998 48.0302 44.8398 47.9602 45.3298 47.9602C47.1998 47.9602 49.3898 48.0602 50.3298 48.0602C51.1598 48.0602 53.3498 47.9602 54.6998 47.9602C55.1898 47.9602 55.4298 48.0302 55.4298 48.2702C55.4298 48.5102 55.2198 48.5802 54.8098 48.5802C54.5298 48.5802 54.2198 48.6102 53.7998 48.6802C52.8598 48.8502 52.5898 49.4402 52.5198 50.6602C52.4498 51.7702 52.4498 52.7402 52.4498 58.0202V64.1302C52.4498 67.3202 52.4498 70.0602 52.6198 71.5602C52.7198 72.5302 52.9298 73.3002 53.9698 73.4302C54.4598 73.5002 55.2198 73.5702 55.7398 73.5702C56.1198 73.5702 56.2998 73.6702 56.2998 73.8502C56.2998 74.0902 56.0198 74.2002 55.6098 74.2002C53.3498 74.2002 51.1698 74.1002 50.1998 74.1002C49.3998 74.1002 47.2198 74.2002 45.8598 74.2002C45.3698 74.2002 45.1298 74.1002 45.1298 73.8502C45.1298 73.6802 45.2698 73.5702 45.6898 73.5702C46.2098 73.5702 46.6298 73.5002 46.9398 73.4302C47.6298 73.2902 47.8098 72.5302 47.9498 71.5202C48.1198 70.0602 48.1198 67.3202 48.1198 64.1302V61.0802C48.1198 60.9402 48.0198 60.8702 47.9098 60.8702H34.6498C34.5498 60.8702 34.4398 60.9002 34.4398 61.0802V64.1302C34.4398 67.3202 34.4398 70.0602 34.6098 71.5602C34.7098 72.5302 34.9198 73.3002 35.9598 73.4302C36.4498 73.5002 37.2098 73.5702 37.7298 73.5702C38.1098 73.5702 38.2898 73.6702 38.2898 73.8502C38.2898 74.0902 38.0098 74.2002 37.5998 74.2002C35.3398 74.2002 33.1598 74.1002 32.1898 74.1002C31.3898 74.1002 29.2098 74.2002 27.8198 74.2002C27.3698 74.2002 27.1298 74.1002 27.1298 73.8502C27.1298 73.6802 27.2698 73.5702 27.6898 73.5702C28.2098 73.5702 28.6298 73.5002 28.9398 73.4302C29.6298 73.2902 29.8098 72.5302 29.9498 71.5202C30.1198 70.0602 30.1198 67.3202 30.1198 64.1302V58.0202C30.1198 52.7502 30.1198 51.7702 30.0498 50.6602C29.9798 49.4802 29.6998 48.9202 28.5598 48.6802C28.2798 48.6102 27.6898 48.5802 27.2098 48.5802C26.8298 48.5802 26.6198 48.5102 26.6198 48.2702C26.6198 48.0302 26.8598 47.9602 27.3498 47.9602C29.2198 47.9602 31.4098 48.0602 32.3498 48.0602C33.1798 48.0602 35.3698 47.9602 36.7198 47.9602C37.2098 47.9602 37.4498 48.0302 37.4498 48.2702C37.4498 48.5102 37.1398 48.5802 36.8298 48.5802C36.5498 48.5802 36.0998 48.6102 35.8198 48.6502C34.8798 48.7902 34.6098 49.4502 34.5398 50.6602C34.4698 51.7702 34.4698 52.7402 34.4698 58.0202V58.7502C34.4698 58.9202 34.5698 58.9902 34.6798 58.9902H47.9398H47.8898Z" fill="#F9F2E8"/>
<path d="M63.7698 58.0207C63.7698 52.7507 63.7698 51.7707 63.6998 50.6607C63.6298 49.4807 63.3498 48.9207 62.2098 48.6807C61.9298 48.6107 61.3398 48.5807 60.8598 48.5807C60.4798 48.5807 60.2698 48.5107 60.2698 48.2707C60.2698 48.0307 60.5098 47.9607 61.0298 47.9607C62.6298 47.9607 64.2198 48.0607 66.0298 48.0607C67.1398 48.0607 74.0498 48.0607 74.7098 48.0307C75.3698 47.9607 75.9198 47.8907 76.1998 47.8207C76.3698 47.7907 76.5798 47.6807 76.7598 47.6807C76.9398 47.6807 76.9698 47.8207 76.9698 47.9907C76.9698 48.2307 76.7998 48.6507 76.6898 50.2507C76.6598 50.6007 76.5898 52.1207 76.5198 52.5407C76.4898 52.7107 76.4198 52.9207 76.1698 52.9207C75.9198 52.9207 75.8598 52.7107 75.8598 52.3007C75.8598 52.1607 75.8298 51.6107 75.6498 51.1907C75.4098 50.5707 75.0598 50.1507 73.3198 49.9407C72.7298 49.8707 69.0898 49.8007 68.3898 49.8007C68.2198 49.8007 68.1498 49.9007 68.1498 50.1507V58.9307C68.1498 59.1707 68.1798 59.3107 68.3898 59.3107C69.1498 59.3107 73.1398 59.3107 73.9398 59.2407C74.7698 59.1707 75.2898 59.0707 75.6098 58.7207C75.8498 58.4407 75.9898 58.2707 76.1698 58.2707C76.3098 58.2707 76.4098 58.3407 76.4098 58.5507C76.4098 58.7607 76.2698 59.3107 76.1298 61.0807C76.0998 61.7707 75.9898 63.1607 75.9898 63.4107C75.9898 63.6907 75.9898 64.0707 75.6798 64.0707C75.4398 64.0707 75.3698 63.6907 75.3698 63.5107C75.3398 63.1607 75.3398 62.9507 75.2298 62.5007C75.0598 61.8107 74.5698 61.2907 73.2898 61.1507C72.6298 61.0807 69.1998 61.0507 68.3598 61.0507C68.1898 61.0507 68.1498 61.1907 68.1498 61.4007V64.1407C68.1498 65.3207 68.1198 68.5107 68.1498 69.5207C68.2198 71.9107 68.7698 72.4307 72.3098 72.4307C73.2098 72.4307 74.6698 72.4307 75.5698 72.0107C76.4698 71.5907 76.8898 70.8607 77.1298 69.4407C77.1998 69.0607 77.2698 68.9207 77.5098 68.9207C77.7898 68.9207 77.7898 69.2007 77.7898 69.5407C77.7898 70.3407 77.5098 72.7007 77.3398 73.3907C77.0998 74.2907 76.7798 74.2907 75.4698 74.2907C72.3798 74.2907 69.3298 74.0807 65.8598 74.0807C64.4698 74.0807 63.0498 74.1807 61.4898 74.1807C61.0398 74.1807 60.7998 74.0807 60.7998 73.8307C60.7998 73.6607 60.9398 73.5507 61.3598 73.5507C61.8798 73.5507 62.2998 73.4807 62.6098 73.4107C63.2998 73.2707 63.4798 72.5107 63.6198 71.5007C63.7898 70.0407 63.7898 67.3007 63.7898 64.1107V58.0007L63.7698 58.0207Z" fill="#F9F2E8"/>
<path d="M96.1098 58.0202C96.1098 52.7502 96.1098 51.7702 96.0398 50.6602C95.9698 49.4802 95.6898 48.9202 94.5498 48.6802C94.2698 48.6102 93.6798 48.5802 93.1998 48.5802C92.8198 48.5802 92.6098 48.5102 92.6098 48.2702C92.6098 48.0302 92.8498 47.9602 93.3698 47.9602C95.2098 47.9602 97.3998 48.0602 98.3698 48.0602C99.7898 48.0602 101.81 47.9602 103.4 47.9602C107.74 47.9602 109.13 49.2802 109.92 50.0402C110.68 50.8002 111.59 52.1902 111.59 54.5902C111.59 58.8602 107.98 62.4702 103.05 62.4702C102.88 62.4702 102.49 62.4702 102.32 62.4402C102.15 62.4102 101.9 62.3702 101.9 62.1302C101.9 61.8502 102.14 61.7502 102.87 61.7502C104.81 61.7502 107.52 59.5302 107.52 55.9902C107.52 54.8402 107.52 52.5502 105.58 50.8202C104.33 49.6702 102.8 49.4702 102.01 49.4702C101.49 49.4702 100.97 49.5002 100.66 49.6102C100.49 49.6802 100.38 49.8902 100.38 50.2702V64.1502C100.38 67.3402 100.38 70.0802 100.55 71.5802C100.65 72.5502 100.86 73.3202 101.9 73.4502C102.39 73.5202 103.15 73.5902 103.67 73.5902C104.05 73.5902 104.23 73.6902 104.23 73.8702C104.23 74.1102 103.95 74.2202 103.57 74.2202C101.28 74.2202 99.0898 74.1202 98.1898 74.1202C97.3898 74.1202 95.2098 74.2202 93.8198 74.2202C93.3698 74.2202 93.1298 74.1202 93.1298 73.8702C93.1298 73.7002 93.2698 73.5902 93.6898 73.5902C94.2098 73.5902 94.6298 73.5202 94.9398 73.4502C95.6298 73.3102 95.8098 72.5502 95.9498 71.5402C96.1198 70.0802 96.1198 67.3402 96.1198 64.1502V58.0402L96.1098 58.0202Z" fill="#F9F2E8"/>
<path d="M118.66 65.1302C118.49 65.1302 118.42 65.2002 118.35 65.4102L116.48 70.3702C116.13 71.2402 115.96 72.0702 115.96 72.4902C115.96 73.1102 116.27 73.5702 117.35 73.5702H117.87C118.29 73.5702 118.39 73.6402 118.39 73.8502C118.39 74.1302 118.18 74.2002 117.8 74.2002C116.69 74.2002 115.2 74.1002 114.12 74.1002C113.74 74.1002 111.83 74.2002 110.03 74.2002C109.58 74.2002 109.37 74.1302 109.37 73.8502C109.37 73.6402 109.58 73.5702 109.86 73.5702C110.17 73.5702 110.59 73.5402 110.87 73.5002C112.47 73.2902 113.13 72.1102 113.82 70.3802L122.53 48.5902C122.95 47.5802 123.19 47.2002 123.5 47.2002C123.78 47.2002 124.02 47.5102 124.37 48.3102C125.2 50.2202 130.76 64.3802 132.98 69.6502C134.3 72.7702 135.31 73.2602 136.03 73.4302C136.55 73.5302 137.07 73.5702 137.49 73.5702C137.77 73.5702 137.94 73.6402 137.94 73.8502C137.94 74.1302 137.63 74.2002 136.34 74.2002C135.05 74.2002 132.31 74.2002 129.54 74.1302C128.92 74.1002 128.74 74.0602 128.74 73.8502C128.74 73.6802 128.88 73.5702 129.23 73.5402C129.47 73.4702 129.72 73.1602 129.54 72.7402L126.76 65.3802C126.69 65.2102 126.59 65.1402 126.41 65.1402H118.67L118.66 65.1302ZM125.74 63.4002C125.91 63.4002 125.95 63.3002 125.91 63.1902L122.79 54.6202C122.69 54.3102 122.55 54.2002 122.41 54.6202L119.22 63.1602C119.19 63.3002 119.22 63.4002 119.36 63.4002H125.75H125.74Z" fill="#F9F2E8"/>
<path d="M141.56 58.0202C141.56 52.7502 141.56 51.7702 141.49 50.6602C141.42 49.4802 141.14 48.9202 140 48.6802C139.72 48.6102 139.13 48.5802 138.65 48.5802C138.27 48.5802 138.06 48.5102 138.06 48.2702C138.06 48.0302 138.3 47.9602 138.82 47.9602C140.66 47.9602 142.85 48.0602 143.82 48.0602C144.9 48.0602 147.08 47.9602 149.16 47.9602C153.5 47.9602 159.29 47.9602 163.08 51.9202C164.82 53.7202 166.45 56.6002 166.45 60.7302C166.45 65.1002 164.61 68.4302 162.67 70.4102C161.07 72.0402 157.46 74.5102 151.04 74.5102C149.79 74.5102 148.37 74.4102 147.05 74.3002C145.73 74.2002 144.52 74.0902 143.65 74.0902C143.27 74.0902 142.5 74.0902 141.67 74.1202C140.87 74.1202 139.97 74.1902 139.28 74.1902C138.83 74.1902 138.59 74.0902 138.59 73.8402C138.59 73.6702 138.73 73.5602 139.15 73.5602C139.67 73.5602 140.09 73.4902 140.4 73.4202C141.09 73.2802 141.27 72.5202 141.41 71.5102C141.58 70.0502 141.58 67.3102 141.58 64.1202V58.0102L141.56 58.0202ZM145.9 61.8302C145.9 65.5102 145.93 68.1802 145.97 68.8402C146 69.7102 146.07 71.1002 146.35 71.4802C146.8 72.1402 148.15 72.8702 150.9 72.8702C154.44 72.8702 156.8 72.1802 158.88 70.3702C161.1 68.4602 161.79 65.3002 161.79 61.7302C161.79 57.3202 159.95 54.4802 158.46 53.0502C155.27 50.0002 151.31 49.5802 148.6 49.5802C147.91 49.5802 146.62 49.6802 146.34 49.8202C146.03 49.9602 145.92 50.1302 145.92 50.5102C145.89 51.6902 145.89 54.7102 145.89 57.4502V61.8202L145.9 61.8302Z" fill="#F9F2E8"/>
<path d="M173.52 58.0202C173.52 52.7502 173.52 51.7702 173.45 50.6602C173.38 49.4802 173.03 48.8902 172.27 48.7202C171.89 48.6202 171.44 48.5802 171.02 48.5802C170.67 48.5802 170.46 48.5102 170.46 48.2302C170.46 48.0202 170.74 47.9502 171.29 47.9502C172.61 47.9502 174.8 48.0502 175.8 48.0502C176.67 48.0502 178.71 47.9502 180.03 47.9502C180.48 47.9502 180.76 48.0202 180.76 48.2302C180.76 48.5102 180.55 48.5802 180.2 48.5802C179.85 48.5802 179.58 48.6102 179.16 48.6802C178.22 48.8502 177.95 49.4402 177.88 50.6602C177.81 51.7702 177.81 52.7402 177.81 58.0202V64.1302C177.81 67.5002 177.81 70.2402 177.95 71.7302C178.05 72.6702 178.3 73.2902 179.34 73.4302C179.83 73.5002 180.59 73.5702 181.11 73.5702C181.49 73.5702 181.67 73.6702 181.67 73.8502C181.67 74.0902 181.39 74.2002 181.01 74.2002C178.72 74.2002 176.53 74.1002 175.6 74.1002C174.8 74.1002 172.62 74.2002 171.23 74.2002C170.78 74.2002 170.54 74.1002 170.54 73.8502C170.54 73.6802 170.68 73.5702 171.1 73.5702C171.62 73.5702 172.04 73.5002 172.35 73.4302C173.04 73.2902 173.25 72.7002 173.36 71.6902C173.53 70.2302 173.53 67.4902 173.53 64.1202V58.0102L173.52 58.0202Z" fill="#F9F2E8"/>
<path d="M186.01 51.3502C185.21 49.4402 184.62 49.0602 183.37 48.7102C182.85 48.5702 182.29 48.5702 182.02 48.5702C181.71 48.5702 181.6 48.4702 181.6 48.2602C181.6 47.9802 181.98 47.9502 182.5 47.9502C184.34 47.9502 186.32 48.0502 187.53 48.0502C188.4 48.0502 190.06 47.9502 191.8 47.9502C192.22 47.9502 192.6 48.0202 192.6 48.2602C192.6 48.5002 192.39 48.5702 192.08 48.5702C191.52 48.5702 191 48.6002 190.73 48.8102C190.49 48.9802 190.38 49.2302 190.38 49.5402C190.38 49.9902 190.69 50.9602 191.18 52.2102C193.09 57.2102 195.41 63.3502 197.22 68.1402C198.71 64.3202 203.29 52.9702 204.13 50.6802C204.3 50.2302 204.44 49.7102 204.44 49.4002C204.44 49.1202 204.3 48.8402 203.99 48.7402C203.57 48.6002 203.05 48.5702 202.6 48.5702C202.29 48.5702 202.01 48.5402 202.01 48.2902C202.01 48.0102 202.32 47.9402 202.98 47.9402C204.72 47.9402 206.17 48.0402 206.62 48.0402C207.21 48.0402 208.84 47.9402 209.88 47.9402C210.33 47.9402 210.61 48.0102 210.61 48.2502C210.61 48.4902 210.4 48.5602 210.05 48.5602C209.7 48.5602 208.97 48.5602 208.35 48.9802C207.9 49.2902 207.38 49.8802 206.44 52.1002C205.09 55.3602 204.15 57.2402 202.28 61.5002C200.06 66.5702 198.43 70.3502 197.66 72.0802C196.76 74.0902 196.55 74.6502 196.06 74.6502C195.61 74.6502 195.4 74.1602 194.74 72.5302L185.99 51.3302L186.01 51.3502Z" fill="#F9F2E8"/>
<path d="M213.77 65.1302C213.6 65.1302 213.53 65.2002 213.46 65.4102L211.59 70.3702C211.24 71.2402 211.07 72.0702 211.07 72.4902C211.07 73.1102 211.38 73.5702 212.46 73.5702H212.98C213.4 73.5702 213.5 73.6402 213.5 73.8502C213.5 74.1302 213.29 74.2002 212.91 74.2002C211.8 74.2002 210.31 74.1002 209.23 74.1002C208.85 74.1002 206.94 74.2002 205.14 74.2002C204.69 74.2002 204.48 74.1302 204.48 73.8502C204.48 73.6402 204.69 73.5702 204.97 73.5702C205.28 73.5702 205.7 73.5402 205.98 73.5002C207.58 73.2902 208.24 72.1102 208.93 70.3802L217.64 48.5902C218.06 47.5802 218.3 47.2002 218.61 47.2002C218.89 47.2002 219.13 47.5102 219.48 48.3102C220.31 50.2202 225.87 64.3802 228.09 69.6502C229.41 72.7702 230.42 73.2602 231.14 73.4302C231.66 73.5302 232.18 73.5702 232.6 73.5702C232.88 73.5702 233.05 73.6402 233.05 73.8502C233.05 74.1302 232.74 74.2002 231.45 74.2002C230.16 74.2002 227.42 74.2002 224.65 74.1302C224.03 74.1002 223.85 74.0602 223.85 73.8502C223.85 73.6802 223.99 73.5702 224.34 73.5402C224.58 73.4702 224.83 73.1602 224.65 72.7402L221.87 65.3802C221.8 65.2102 221.7 65.1402 221.52 65.1402H213.78L213.77 65.1302ZM220.85 63.4002C221.02 63.4002 221.06 63.3002 221.02 63.1902L217.9 54.6202C217.8 54.3102 217.66 54.2002 217.52 54.6202L214.33 63.1602C214.3 63.3002 214.33 63.4002 214.47 63.4002H220.86H220.85Z" fill="#F9F2E8"/>
<path d="M241 64.1302C241 68.5702 241 70.9702 241.73 71.5902C242.32 72.1102 243.22 72.3502 245.93 72.3502C247.77 72.3502 249.12 72.3202 249.99 71.3802C250.41 70.9302 250.82 69.9602 250.89 69.3002C250.92 68.9902 250.99 68.7802 251.27 68.7802C251.51 68.7802 251.55 68.9502 251.55 69.3702C251.55 69.7502 251.31 72.3502 251.03 73.3602C250.82 74.1202 250.65 74.3002 248.84 74.3002C245.65 74.3002 242.45 74.0902 238.74 74.0902C237.35 74.0902 235.93 74.1902 234.37 74.1902C233.92 74.1902 233.68 74.0902 233.68 73.8402C233.68 73.6702 233.82 73.5602 234.24 73.5602C234.76 73.5602 235.18 73.4902 235.49 73.4202C236.18 73.2802 236.36 72.5202 236.5 71.5102C236.67 70.0502 236.67 67.3102 236.67 64.1202V58.0102C236.67 52.7402 236.67 51.7602 236.6 50.6502C236.53 49.4702 236.25 48.9102 235.11 48.6702C234.83 48.6002 234.42 48.5702 233.96 48.5702C233.58 48.5702 233.37 48.5002 233.37 48.2602C233.37 48.0202 233.61 47.9502 234.13 47.9502C235.76 47.9502 237.95 48.0502 238.88 48.0502C239.71 48.0502 242.25 47.9502 243.6 47.9502C244.09 47.9502 244.33 48.0202 244.33 48.2602C244.33 48.5002 244.12 48.5702 243.71 48.5702C243.33 48.5702 242.77 48.6002 242.36 48.6702C241.42 48.8402 241.15 49.4302 241.08 50.6502C241.01 51.7602 241.01 52.7302 241.01 58.0102V64.1202L241 64.1302Z" fill="#F9F2E8"/>
<path d="M289.13 71.8602C289.13 72.8002 289.1 72.8702 288.68 73.1102C286.42 74.2902 283.02 74.6702 280.32 74.6702C271.82 74.6702 264.29 70.6402 264.29 61.0702C264.29 55.5202 267.17 51.6302 270.33 49.7202C273.66 47.7102 276.75 47.4602 279.66 47.4602C282.05 47.4602 285.11 47.8802 285.8 48.0202C286.53 48.1602 287.74 48.3702 288.54 48.4002C288.96 48.4302 289.03 48.5702 289.03 48.8202C289.03 49.2002 288.79 50.1702 288.79 54.5102C288.79 55.0702 288.69 55.2402 288.41 55.2402C288.17 55.2402 288.1 55.0702 288.06 54.7902C287.96 53.9902 287.78 52.8802 286.88 51.9102C285.84 50.8002 283.06 49.2002 279.14 49.2002C277.23 49.2002 274.7 49.3402 272.27 51.3502C270.33 52.9802 269.08 55.5802 269.08 59.8502C269.08 67.3102 273.83 72.9002 281.16 72.9002C282.06 72.9002 283.28 72.9002 284.11 72.5202C284.63 72.2802 284.77 71.8302 284.77 71.2402V67.9802C284.77 66.2402 284.77 64.9302 284.74 63.8902C284.71 62.7102 284.39 62.1502 283.25 61.9102C282.97 61.8402 282.38 61.8102 281.9 61.8102C281.59 61.8102 281.38 61.7402 281.38 61.5302C281.38 61.2502 281.62 61.1802 282.11 61.1802C283.91 61.1802 286.1 61.2802 287.14 61.2802C288.18 61.2802 290.06 61.1802 291.2 61.1802C291.65 61.1802 291.89 61.2502 291.89 61.5302C291.89 61.7402 291.68 61.8102 291.44 61.8102C291.16 61.8102 290.92 61.8402 290.5 61.9102C289.56 62.0802 289.22 62.6702 289.18 63.8902C289.15 64.9302 289.15 66.3202 289.15 68.0502V71.8702L289.13 71.8602Z" fill="#F9F2E8"/>
<path d="M298.53 58.0202C298.53 52.7502 298.53 51.7702 298.46 50.6602C298.39 49.4802 298.11 48.9202 296.97 48.6802C296.69 48.6102 296.1 48.5802 295.62 48.5802C295.24 48.5802 295.03 48.5102 295.03 48.2702C295.03 48.0302 295.27 47.9602 295.79 47.9602C297.63 47.9602 299.82 48.0602 300.54 48.0602C301.72 48.0602 304.36 47.9602 305.43 47.9602C307.62 47.9602 309.94 48.1702 311.82 49.4502C312.79 50.1102 314.18 51.8802 314.18 54.2002C314.18 56.7702 313.14 59.0902 309.63 61.9402C312.72 65.8302 315.11 68.9502 317.16 71.1002C319.1 73.1102 320.49 73.3602 321.01 73.4602C321.39 73.5302 321.7 73.5602 321.98 73.5602C322.26 73.5602 322.4 73.6602 322.4 73.8402C322.4 74.1202 322.16 74.1902 321.74 74.1902H318.34C316.4 74.1902 315.53 74.0202 314.63 73.5302C313.14 72.7302 311.82 71.1002 309.88 68.4302C308.49 66.5202 306.9 64.1602 306.44 63.6402C306.27 63.4302 306.06 63.4002 305.82 63.4002L302.9 63.3302C302.73 63.3302 302.62 63.4002 302.62 63.6102V64.1002C302.62 67.3302 302.62 70.0702 302.79 71.5302C302.89 72.5402 303.1 73.3002 304.14 73.4402C304.66 73.5102 305.42 73.5802 305.84 73.5802C306.12 73.5802 306.26 73.6802 306.26 73.8602C306.26 74.1002 306.02 74.2102 305.57 74.2102C303.56 74.2102 300.99 74.1102 300.47 74.1102C299.81 74.1102 297.62 74.2102 296.24 74.2102C295.79 74.2102 295.55 74.1102 295.55 73.8602C295.55 73.6902 295.69 73.5802 296.11 73.5802C296.63 73.5802 297.05 73.5102 297.36 73.4402C298.05 73.3002 298.23 72.5402 298.37 71.5302C298.54 70.0702 298.54 67.3302 298.54 64.1402V58.0302L298.53 58.0202ZM302.62 60.7602C302.62 61.1402 302.69 61.2802 302.93 61.3802C303.66 61.6202 304.7 61.7302 305.57 61.7302C306.96 61.7302 307.41 61.5902 308.03 61.1402C309.07 60.3802 310.08 58.7802 310.08 55.9302C310.08 51.0002 306.82 49.5802 304.77 49.5802C303.9 49.5802 303.28 49.6102 302.93 49.7202C302.69 49.7902 302.62 49.9302 302.62 50.2102V60.7602Z" fill="#F9F2E8"/>
<path d="M327.29 65.1302C327.12 65.1302 327.05 65.2002 326.98 65.4102L325.11 70.3702C324.76 71.2402 324.59 72.0702 324.59 72.4902C324.59 73.1102 324.9 73.5702 325.98 73.5702H326.5C326.92 73.5702 327.02 73.6402 327.02 73.8502C327.02 74.1302 326.81 74.2002 326.43 74.2002C325.32 74.2002 323.83 74.1002 322.75 74.1002C322.37 74.1002 320.46 74.2002 318.66 74.2002C318.21 74.2002 318 74.1302 318 73.8502C318 73.6402 318.21 73.5702 318.49 73.5702C318.8 73.5702 319.22 73.5402 319.5 73.5002C321.1 73.2902 321.76 72.1102 322.45 70.3802L331.16 48.5902C331.58 47.5802 331.82 47.2002 332.13 47.2002C332.41 47.2002 332.65 47.5102 333 48.3102C333.83 50.2202 339.39 64.3802 341.61 69.6502C342.93 72.7702 343.94 73.2602 344.66 73.4302C345.18 73.5302 345.7 73.5702 346.12 73.5702C346.4 73.5702 346.57 73.6402 346.57 73.8502C346.57 74.1302 346.26 74.2002 344.97 74.2002C343.68 74.2002 340.94 74.2002 338.17 74.1302C337.55 74.1002 337.37 74.0602 337.37 73.8502C337.37 73.6802 337.51 73.5702 337.86 73.5402C338.1 73.4702 338.35 73.1602 338.17 72.7402L335.39 65.3802C335.32 65.2102 335.22 65.1402 335.04 65.1402H327.3L327.29 65.1302ZM334.37 63.4002C334.54 63.4002 334.58 63.3002 334.54 63.1902L331.42 54.6202C331.32 54.3102 331.18 54.2002 331.04 54.6202L327.85 63.1602C327.82 63.3002 327.85 63.4002 327.99 63.4002H334.38H334.37Z" fill="#F9F2E8"/>
<path d="M349.64 48.5402C349.64 47.8502 349.74 47.3602 350.09 47.3602C350.47 47.3602 350.78 47.8102 351.37 48.4402C351.79 48.8902 357.06 54.5502 362.13 59.5802C364.49 61.9402 369.35 67.1102 369.94 67.6702L369.59 51.9202C369.56 49.8002 369.24 49.1402 368.41 48.8002C367.89 48.5902 367.06 48.5902 366.57 48.5902C366.15 48.5902 366.01 48.4902 366.01 48.2802C366.01 48.0002 366.39 47.9702 366.91 47.9702C368.71 47.9702 370.38 48.0702 371.11 48.0702C371.49 48.0702 372.81 47.9702 374.51 47.9702C374.96 47.9702 375.31 48.0002 375.31 48.2802C375.31 48.4902 375.1 48.5902 374.69 48.5902C374.34 48.5902 374.07 48.5902 373.65 48.6902C372.68 48.9702 372.4 49.7002 372.37 51.6402C372.23 58.9602 372.13 66.2202 371.99 73.5402C371.99 74.3002 371.85 74.6202 371.54 74.6202C371.16 74.6202 370.74 74.2402 370.36 73.8602C368.17 71.7802 363.73 67.2302 360.12 63.6602C356.34 59.9102 352.38 55.4702 351.76 54.8102L352.14 69.4902C352.21 72.2002 352.66 73.1002 353.35 73.3402C353.94 73.5502 354.6 73.5802 355.15 73.5802C355.53 73.5802 355.74 73.6502 355.74 73.8602C355.74 74.1402 355.43 74.2102 354.94 74.2102C352.68 74.2102 351.3 74.1102 350.64 74.1102C350.33 74.1102 348.7 74.2102 346.89 74.2102C346.44 74.2102 346.13 74.1802 346.13 73.8602C346.13 73.6502 346.34 73.5802 346.69 73.5802C347.14 73.5802 347.77 73.5502 348.25 73.4102C349.15 73.1302 349.29 72.1302 349.33 69.1102C349.43 61.7502 349.57 53.1802 349.64 48.5702V48.5402Z" fill="#F9F2E8"/>
<path d="M382.7 58.0202C382.7 52.7502 382.7 51.7702 382.63 50.6602C382.56 49.4802 382.28 48.9202 381.14 48.6802C380.86 48.6102 380.27 48.5802 379.79 48.5802C379.41 48.5802 379.2 48.5102 379.2 48.2702C379.2 48.0302 379.44 47.9602 379.96 47.9602C381.8 47.9602 383.99 48.0602 384.96 48.0602C386.04 48.0602 388.22 47.9602 390.3 47.9602C394.64 47.9602 400.43 47.9602 404.22 51.9202C405.96 53.7202 407.59 56.6002 407.59 60.7302C407.59 65.1002 405.75 68.4302 403.81 70.4102C402.21 72.0402 398.6 74.5102 392.18 74.5102C390.93 74.5102 389.51 74.4102 388.19 74.3002C386.87 74.2002 385.66 74.0902 384.79 74.0902C384.41 74.0902 383.64 74.0902 382.81 74.1202C382.01 74.1202 381.11 74.1902 380.42 74.1902C379.97 74.1902 379.73 74.0902 379.73 73.8402C379.73 73.6702 379.87 73.5602 380.29 73.5602C380.81 73.5602 381.23 73.4902 381.54 73.4202C382.23 73.2802 382.41 72.5202 382.55 71.5102C382.72 70.0502 382.72 67.3102 382.72 64.1202V58.0102L382.7 58.0202ZM387.04 61.8302C387.04 65.5102 387.07 68.1802 387.11 68.8402C387.14 69.7102 387.21 71.1002 387.49 71.4802C387.94 72.1402 389.29 72.8702 392.04 72.8702C395.58 72.8702 397.94 72.1802 400.02 70.3702C402.24 68.4602 402.93 65.3002 402.93 61.7302C402.93 57.3202 401.09 54.4802 399.6 53.0502C396.41 50.0002 392.45 49.5802 389.74 49.5802C389.05 49.5802 387.76 49.6802 387.48 49.8202C387.17 49.9602 387.06 50.1302 387.06 50.5102C387.03 51.6902 387.03 54.7102 387.03 57.4502V61.8202L387.04 61.8302Z" fill="#F9F2E8"/>
<path d="M168.37 108.36V101.48H162.39V108.36H158.81V93.16H162.39V99.75H168.37V93.16H171.95V108.36H168.37Z" fill="#F9F2E8"/>
<path d="M186.61 108.72C181.62 108.72 178.46 105.58 178.46 100.91C178.46 96.24 182.23 92.79 186.76 92.79C191.77 92.79 194.93 95.95 194.93 100.65C194.93 105.35 191.13 108.73 186.61 108.73V108.72ZM191.09 100.94C191.09 96.61 189.12 94.42 186.61 94.42C184.1 94.42 182.3 96.41 182.3 100.62C182.3 104.83 184.3 107.12 186.78 107.12C189.26 107.12 191.09 105.15 191.09 100.94Z" fill="#F9F2E8"/>
<path d="M204.12 108.36V94.86C201.57 94.93 200.49 95.15 199.23 95.64V93.16H212.54V95.64C211.32 95.15 210.16 94.93 207.7 94.86V108.36H204.12Z" fill="#F9F2E8"/>
<path d="M218.33 108.36V93.16H228.84V95.62C227.65 95.13 226.53 94.89 223.9 94.89H221.9V99.88H226.79V101.51H221.9V106.64H223.9C226.53 106.64 227.65 106.4 228.84 105.91V108.37H218.33V108.36Z" fill="#F9F2E8"/>
<path d="M235.65 108.36V93.16H239.23V106.64H241.13C243.73 106.64 244.88 106.4 246.07 105.91V108.37H235.66L235.65 108.36Z" fill="#F9F2E8"/>
<path d="M132.12 98.25H0V100.12H132.12V98.25Z" fill="#F9F2E8"/>
<path d="M408.48 98.25H265.3V100.12H408.48V98.25Z" fill="#F9F2E8"/>
<path fill-rule="evenodd" clip-rule="evenodd" d="M155.43 31.81L204.16 0L253.05 31.81H248.03L211.59 9.26L180 31.81H155.43Z" fill="#EAB361"/>
<path d="M14.4698 64.1297C14.4698 67.3197 14.4698 70.0597 14.6398 71.5597C14.7398 72.5297 14.9498 73.2997 15.9898 73.4297C16.4798 73.4997 17.2398 73.5697 17.7598 73.5697C18.1398 73.5697 18.3198 73.6697 18.3198 73.8497C18.3198 74.0897 18.0398 74.1997 17.6598 74.1997C15.3698 74.1997 13.1798 74.0997 12.2098 74.0997C11.4098 74.0997 9.22982 74.1997 7.83982 74.1997C7.38982 74.1997 7.14982 74.0997 7.14982 73.8497C7.14982 73.6797 7.28982 73.5697 7.70982 73.5697C8.22982 73.5697 8.64982 73.4997 8.95982 73.4297C9.64982 73.2897 9.85983 72.5297 9.96982 71.5197C10.1398 70.0597 10.1398 67.3197 10.1398 64.1297V49.8997C8.81983 49.9297 6.66982 49.9997 4.96982 50.0397C2.95982 50.1097 2.11982 50.2797 1.59982 51.0497C1.24982 51.5697 1.07982 51.9897 1.00982 52.2597C0.939824 52.5397 0.839824 52.6797 0.629824 52.6797C0.389824 52.6797 0.319824 52.5097 0.319824 52.1197C0.319824 51.5597 0.979824 48.4097 1.04982 48.1297C1.14982 47.6797 1.25982 47.4697 1.46982 47.4697C1.74982 47.4697 2.08982 47.8197 2.95982 47.8897C3.96982 47.9897 5.28982 48.0597 6.42982 48.0597H20.1698C21.2798 48.0597 22.0398 47.9597 22.5598 47.8897C23.0798 47.7897 23.3598 47.7197 23.4998 47.7197C23.7398 47.7197 23.7798 47.9297 23.7798 48.4497C23.7798 49.1797 23.6798 51.5697 23.6798 52.4797C23.6498 52.8297 23.5798 53.0397 23.3698 53.0397C23.0898 53.0397 23.0198 52.8697 22.9898 52.3497C22.9898 52.2497 22.9598 52.0697 22.9598 51.9697C22.8898 51.0697 21.9498 50.0997 18.8698 50.0297C17.9698 49.9997 16.5398 49.9597 14.4998 49.9297V64.1597L14.4698 64.1297Z" fill="white"/>
<path d="M47.8898 58.9902C47.9898 58.9902 48.0998 58.9202 48.0998 58.7502V58.0202C48.0998 52.7502 48.0998 51.7702 48.0298 50.6602C47.9598 49.4802 47.6798 48.9202 46.5398 48.6802C46.2598 48.6102 45.6698 48.5802 45.1898 48.5802C44.8098 48.5802 44.5998 48.5102 44.5998 48.2702C44.5998 48.0302 44.8398 47.9602 45.3298 47.9602C47.1998 47.9602 49.3898 48.0602 50.3298 48.0602C51.1598 48.0602 53.3498 47.9602 54.6998 47.9602C55.1898 47.9602 55.4298 48.0302 55.4298 48.2702C55.4298 48.5102 55.2198 48.5802 54.8098 48.5802C54.5298 48.5802 54.2198 48.6102 53.7998 48.6802C52.8598 48.8502 52.5898 49.4402 52.5198 50.6602C52.4498 51.7702 52.4498 52.7402 52.4498 58.0202V64.1302C52.4498 67.3202 52.4498 70.0602 52.6198 71.5602C52.7198 72.5302 52.9298 73.3002 53.9698 73.4302C54.4598 73.5002 55.2198 73.5702 55.7398 73.5702C56.1198 73.5702 56.2998 73.6702 56.2998 73.8502C56.2998 74.0902 56.0198 74.2002 55.6098 74.2002C53.3498 74.2002 51.1698 74.1002 50.1998 74.1002C49.3998 74.1002 47.2198 74.2002 45.8598 74.2002C45.3698 74.2002 45.1298 74.1002 45.1298 73.8502C45.1298 73.6802 45.2698 73.5702 45.6898 73.5702C46.2098 73.5702 46.6298 73.5002 46.9398 73.4302C47.6298 73.2902 47.8098 72.5302 47.9498 71.5202C48.1198 70.0602 48.1198 67.3202 48.1198 64.1302V61.0802C48.1198 60.9402 48.0198 60.8702 47.9098 60.8702H34.6498C34.5498 60.8702 34.4398 60.9002 34.4398 61.0802V64.1302C34.4398 67.3202 34.4398 70.0602 34.6098 71.5602C34.7098 72.5302 34.9198 73.3002 35.9598 73.4302C36.4498 73.5002 37.2098 73.5702 37.7298 73.5702C38.1098 73.5702 38.2898 73.6702 38.2898 73.8502C38.2898 74.0902 38.0098 74.2002 37.5998 74.2002C35.3398 74.2002 33.1598 74.1002 32.1898 74.1002C31.3898 74.1002 29.2098 74.2002 27.8198 74.2002C27.3698 74.2002 27.1298 74.1002 27.1298 73.8502C27.1298 73.6802 27.2698 73.5702 27.6898 73.5702C28.2098 73.5702 28.6298 73.5002 28.9398 73.4302C29.6298 73.2902 29.8098 72.5302 29.9498 71.5202C30.1198 70.0602 30.1198 67.3202 30.1198 64.1302V58.0202C30.1198 52.7502 30.1198 51.7702 30.0498 50.6602C29.9798 49.4802 29.6998 48.9202 28.5598 48.6802C28.2798 48.6102 27.6898 48.5802 27.2098 48.5802C26.8298 48.5802 26.6198 48.5102 26.6198 48.2702C26.6198 48.0302 26.8598 47.9602 27.3498 47.9602C29.2198 47.9602 31.4098 48.0602 32.3498 48.0602C33.1798 48.0602 35.3698 47.9602 36.7198 47.9602C37.2098 47.9602 37.4498 48.0302 37.4498 48.2702C37.4498 48.5102 37.1398 48.5802 36.8298 48.5802C36.5498 48.5802 36.0998 48.6102 35.8198 48.6502C34.8798 48.7902 34.6098 49.4502 34.5398 50.6602C34.4698 51.7702 34.4698 52.7402 34.4698 58.0202V58.7502C34.4698 58.9202 34.5698 58.9902 34.6798 58.9902H47.9398H47.8898Z" fill="white"/>
<path d="M63.7698 58.0207C63.7698 52.7507 63.7698 51.7707 63.6998 50.6607C63.6298 49.4807 63.3498 48.9207 62.2098 48.6807C61.9298 48.6107 61.3398 48.5807 60.8598 48.5807C60.4798 48.5807 60.2698 48.5107 60.2698 48.2707C60.2698 48.0307 60.5098 47.9607 61.0298 47.9607C62.6298 47.9607 64.2198 48.0607 66.0298 48.0607C67.1398 48.0607 74.0498 48.0607 74.7098 48.0307C75.3698 47.9607 75.9198 47.8907 76.1998 47.8207C76.3698 47.7907 76.5798 47.6807 76.7598 47.6807C76.9398 47.6807 76.9698 47.8207 76.9698 47.9907C76.9698 48.2307 76.7998 48.6507 76.6898 50.2507C76.6598 50.6007 76.5898 52.1207 76.5198 52.5407C76.4898 52.7107 76.4198 52.9207 76.1698 52.9207C75.9198 52.9207 75.8598 52.7107 75.8598 52.3007C75.8598 52.1607 75.8298 51.6107 75.6498 51.1907C75.4098 50.5707 75.0598 50.1507 73.3198 49.9407C72.7298 49.8707 69.0898 49.8007 68.3898 49.8007C68.2198 49.8007 68.1498 49.9007 68.1498 50.1507V58.9307C68.1498 59.1707 68.1798 59.3107 68.3898 59.3107C69.1498 59.3107 73.1398 59.3107 73.9398 59.2407C74.7698 59.1707 75.2898 59.0707 75.6098 58.7207C75.8498 58.4407 75.9898 58.2707 76.1698 58.2707C76.3098 58.2707 76.4098 58.3407 76.4098 58.5507C76.4098 58.7607 76.2698 59.3107 76.1298 61.0807C76.0998 61.7707 75.9898 63.1607 75.9898 63.4107C75.9898 63.6907 75.9898 64.0707 75.6798 64.0707C75.4398 64.0707 75.3698 63.6907 75.3698 63.5107C75.3398 63.1607 75.3398 62.9507 75.2298 62.5007C75.0598 61.8107 74.5698 61.2907 73.2898 61.1507C72.6298 61.0807 69.1998 61.0507 68.3598 61.0507C68.1898 61.0507 68.1498 61.1907 68.1498 61.4007V64.1407C68.1498 65.3207 68.1198 68.5107 68.1498 69.5207C68.2198 71.9107 68.7698 72.4307 72.3098 72.4307C73.2098 72.4307 74.6698 72.4307 75.5698 72.0107C76.4698 71.5907 76.8898 70.8607 77.1298 69.4407C77.1998 69.0607 77.2698 68.9207 77.5098 68.9207C77.7898 68.9207 77.7898 69.2007 77.7898 69.5407C77.7898 70.3407 77.5098 72.7007 77.3398 73.3907C77.0998 74.2907 76.7798 74.2907 75.4698 74.2907C72.3798 74.2907 69.3298 74.0807 65.8598 74.0807C64.4698 74.0807 63.0498 74.1807 61.4898 74.1807C61.0398 74.1807 60.7998 74.0807 60.7998 73.8307C60.7998 73.6607 60.9398 73.5507 61.3598 73.5507C61.8798 73.5507 62.2998 73.4807 62.6098 73.4107C63.2998 73.2707 63.4798 72.5107 63.6198 71.5007C63.7898 70.0407 63.7898 67.3007 63.7898 64.1107V58.0007L63.7698 58.0207Z" fill="white"/>
<path d="M96.1098 58.0202C96.1098 52.7502 96.1098 51.7702 96.0398 50.6602C95.9698 49.4802 95.6898 48.9202 94.5498 48.6802C94.2698 48.6102 93.6798 48.5802 93.1998 48.5802C92.8198 48.5802 92.6098 48.5102 92.6098 48.2702C92.6098 48.0302 92.8498 47.9602 93.3698 47.9602C95.2098 47.9602 97.3998 48.0602 98.3698 48.0602C99.7898 48.0602 101.81 47.9602 103.4 47.9602C107.74 47.9602 109.13 49.2802 109.92 50.0402C110.68 50.8002 111.59 52.1902 111.59 54.5902C111.59 58.8602 107.98 62.4702 103.05 62.4702C102.88 62.4702 102.49 62.4702 102.32 62.4402C102.15 62.4102 101.9 62.3702 101.9 62.1302C101.9 61.8502 102.14 61.7502 102.87 61.7502C104.81 61.7502 107.52 59.5302 107.52 55.9902C107.52 54.8402 107.52 52.5502 105.58 50.8202C104.33 49.6702 102.8 49.4702 102.01 49.4702C101.49 49.4702 100.97 49.5002 100.66 49.6102C100.49 49.6802 100.38 49.8902 100.38 50.2702V64.1502C100.38 67.3402 100.38 70.0802 100.55 71.5802C100.65 72.5502 100.86 73.3202 101.9 73.4502C102.39 73.5202 103.15 73.5902 103.67 73.5902C104.05 73.5902 104.23 73.6902 104.23 73.8702C104.23 74.1102 103.95 74.2202 103.57 74.2202C101.28 74.2202 99.0898 74.1202 98.1898 74.1202C97.3898 74.1202 95.2098 74.2202 93.8198 74.2202C93.3698 74.2202 93.1298 74.1202 93.1298 73.8702C93.1298 73.7002 93.2698 73.5902 93.6898 73.5902C94.2098 73.5902 94.6298 73.5202 94.9398 73.4502C95.6298 73.3102 95.8098 72.5502 95.9498 71.5402C96.1198 70.0802 96.1198 67.3402 96.1198 64.1502V58.0402L96.1098 58.0202Z" fill="white"/>
<path d="M118.66 65.1302C118.49 65.1302 118.42 65.2002 118.35 65.4102L116.48 70.3702C116.13 71.2402 115.96 72.0702 115.96 72.4902C115.96 73.1102 116.27 73.5702 117.35 73.5702H117.87C118.29 73.5702 118.39 73.6402 118.39 73.8502C118.39 74.1302 118.18 74.2002 117.8 74.2002C116.69 74.2002 115.2 74.1002 114.12 74.1002C113.74 74.1002 111.83 74.2002 110.03 74.2002C109.58 74.2002 109.37 74.1302 109.37 73.8502C109.37 73.6402 109.58 73.5702 109.86 73.5702C110.17 73.5702 110.59 73.5402 110.87 73.5002C112.47 73.2902 113.13 72.1102 113.82 70.3802L122.53 48.5902C122.95 47.5802 123.19 47.2002 123.5 47.2002C123.78 47.2002 124.02 47.5102 124.37 48.3102C125.2 50.2202 130.76 64.3802 132.98 69.6502C134.3 72.7702 135.31 73.2602 136.03 73.4302C136.55 73.5302 137.07 73.5702 137.49 73.5702C137.77 73.5702 137.94 73.6402 137.94 73.8502C137.94 74.1302 137.63 74.2002 136.34 74.2002C135.05 74.2002 132.31 74.2002 129.54 74.1302C128.92 74.1002 128.74 74.0602 128.74 73.8502C128.74 73.6802 128.88 73.5702 129.23 73.5402C129.47 73.4702 129.72 73.1602 129.54 72.7402L126.76 65.3802C126.69 65.2102 126.59 65.1402 126.41 65.1402H118.67L118.66 65.1302ZM125.74 63.4002C125.91 63.4002 125.95 63.3002 125.91 63.1902L122.79 54.6202C122.69 54.3102 122.55 54.2002 122.41 54.6202L119.22 63.1602C119.19 63.3002 119.22 63.4002 119.36 63.4002H125.75H125.74Z" fill="white"/>
<path d="M141.56 58.0202C141.56 52.7502 141.56 51.7702 141.49 50.6602C141.42 49.4802 141.14 48.9202 140 48.6802C139.72 48.6102 139.13 48.5802 138.65 48.5802C138.27 48.5802 138.06 48.5102 138.06 48.2702C138.06 48.0302 138.3 47.9602 138.82 47.9602C140.66 47.9602 142.85 48.0602 143.82 48.0602C144.9 48.0602 147.08 47.9602 149.16 47.9602C153.5 47.9602 159.29 47.9602 163.08 51.9202C164.82 53.7202 166.45 56.6002 166.45 60.7302C166.45 65.1002 164.61 68.4302 162.67 70.4102C161.07 72.0402 157.46 74.5102 151.04 74.5102C149.79 74.5102 148.37 74.4102 147.05 74.3002C145.73 74.2002 144.52 74.0902 143.65 74.0902C143.27 74.0902 142.5 74.0902 141.67 74.1202C140.87 74.1202 139.97 74.1902 139.28 74.1902C138.83 74.1902 138.59 74.0902 138.59 73.8402C138.59 73.6702 138.73 73.5602 139.15 73.5602C139.67 73.5602 140.09 73.4902 140.4 73.4202C141.09 73.2802 141.27 72.5202 141.41 71.5102C141.58 70.0502 141.58 67.3102 141.58 64.1202V58.0102L141.56 58.0202ZM145.9 61.8302C145.9 65.5102 145.93 68.1802 145.97 68.8402C146 69.7102 146.07 71.1002 146.35 71.4802C146.8 72.1402 148.15 72.8702 150.9 72.8702C154.44 72.8702 156.8 72.1802 158.88 70.3702C161.1 68.4602 161.79 65.3002 161.79 61.7302C161.79 57.3202 159.95 54.4802 158.46 53.0502C155.27 50.0002 151.31 49.5802 148.6 49.5802C147.91 49.5802 146.62 49.6802 146.34 49.8202C146.03 49.9602 145.92 50.1302 145.92 50.5102C145.89 51.6902 145.89 54.7102 145.89 57.4502V61.8202L145.9 61.8302Z" fill="white"/>
<path d="M173.52 58.0202C173.52 52.7502 173.52 51.7702 173.45 50.6602C173.38 49.4802 173.03 48.8902 172.27 48.7202C171.89 48.6202 171.44 48.5802 171.02 48.5802C170.67 48.5802 170.46 48.5102 170.46 48.2302C170.46 48.0202 170.74 47.9502 171.29 47.9502C172.61 47.9502 174.8 48.0502 175.8 48.0502C176.67 48.0502 178.71 47.9502 180.03 47.9502C180.48 47.9502 180.76 48.0202 180.76 48.2302C180.76 48.5102 180.55 48.5802 180.2 48.5802C179.85 48.5802 179.58 48.6102 179.16 48.6802C178.22 48.8502 177.95 49.4402 177.88 50.6602C177.81 51.7702 177.81 52.7402 177.81 58.0202V64.1302C177.81 67.5002 177.81 70.2402 177.95 71.7302C178.05 72.6702 178.3 73.2902 179.34 73.4302C179.83 73.5002 180.59 73.5702 181.11 73.5702C181.49 73.5702 181.67 73.6702 181.67 73.8502C181.67 74.0902 181.39 74.2002 181.01 74.2002C178.72 74.2002 176.53 74.1002 175.6 74.1002C174.8 74.1002 172.62 74.2002 171.23 74.2002C170.78 74.2002 170.54 74.1002 170.54 73.8502C170.54 73.6802 170.68 73.5702 171.1 73.5702C171.62 73.5702 172.04 73.5002 172.35 73.4302C173.04 73.2902 173.25 72.7002 173.36 71.6902C173.53 70.2302 173.53 67.4902 173.53 64.1202V58.0102L173.52 58.0202Z" fill="white"/>
<path d="M186.01 51.3502C185.21 49.4402 184.62 49.0602 183.37 48.7102C182.85 48.5702 182.29 48.5702 182.02 48.5702C181.71 48.5702 181.6 48.4702 181.6 48.2602C181.6 47.9802 181.98 47.9502 182.5 47.9502C184.34 47.9502 186.32 48.0502 187.53 48.0502C188.4 48.0502 190.06 47.9502 191.8 47.9502C192.22 47.9502 192.6 48.0202 192.6 48.2602C192.6 48.5002 192.39 48.5702 192.08 48.5702C191.52 48.5702 191 48.6002 190.73 48.8102C190.49 48.9802 190.38 49.2302 190.38 49.5402C190.38 49.9902 190.69 50.9602 191.18 52.2102C193.09 57.2102 195.41 63.3502 197.22 68.1402C198.71 64.3202 203.29 52.9702 204.13 50.6802C204.3 50.2302 204.44 49.7102 204.44 49.4002C204.44 49.1202 204.3 48.8402 203.99 48.7402C203.57 48.6002 203.05 48.5702 202.6 48.5702C202.29 48.5702 202.01 48.5402 202.01 48.2902C202.01 48.0102 202.32 47.9402 202.98 47.9402C204.72 47.9402 206.17 48.0402 206.62 48.0402C207.21 48.0402 208.84 47.9402 209.88 47.9402C210.33 47.9402 210.61 48.0102 210.61 48.2502C210.61 48.4902 210.4 48.5602 210.05 48.5602C209.7 48.5602 208.97 48.5602 208.35 48.9802C207.9 49.2902 207.38 49.8802 206.44 52.1002C205.09 55.3602 204.15 57.2402 202.28 61.5002C200.06 66.5702 198.43 70.3502 197.66 72.0802C196.76 74.0902 196.55 74.6502 196.06 74.6502C195.61 74.6502 195.4 74.1602 194.74 72.5302L185.99 51.3302L186.01 51.3502Z" fill="white"/>
<path d="M213.77 65.1302C213.6 65.1302 213.53 65.2002 213.46 65.4102L211.59 70.3702C211.24 71.2402 211.07 72.0702 211.07 72.4902C211.07 73.1102 211.38 73.5702 212.46 73.5702H212.98C213.4 73.5702 213.5 73.6402 213.5 73.8502C213.5 74.1302 213.29 74.2002 212.91 74.2002C211.8 74.2002 210.31 74.1002 209.23 74.1002C208.85 74.1002 206.94 74.2002 205.14 74.2002C204.69 74.2002 204.48 74.1302 204.48 73.8502C204.48 73.6402 204.69 73.5702 204.97 73.5702C205.28 73.5702 205.7 73.5402 205.98 73.5002C207.58 73.2902 208.24 72.1102 208.93 70.3802L217.64 48.5902C218.06 47.5802 218.3 47.2002 218.61 47.2002C218.89 47.2002 219.13 47.5102 219.48 48.3102C220.31 50.2202 225.87 64.3802 228.09 69.6502C229.41 72.7702 230.42 73.2602 231.14 73.4302C231.66 73.5302 232.18 73.5702 232.6 73.5702C232.88 73.5702 233.05 73.6402 233.05 73.8502C233.05 74.1302 232.74 74.2002 231.45 74.2002C230.16 74.2002 227.42 74.2002 224.65 74.1302C224.03 74.1002 223.85 74.0602 223.85 73.8502C223.85 73.6802 223.99 73.5702 224.34 73.5402C224.58 73.4702 224.83 73.1602 224.65 72.7402L221.87 65.3802C221.8 65.2102 221.7 65.1402 221.52 65.1402H213.78L213.77 65.1302ZM220.85 63.4002C221.02 63.4002 221.06 63.3002 221.02 63.1902L217.9 54.6202C217.8 54.3102 217.66 54.2002 217.52 54.6202L214.33 63.1602C214.3 63.3002 214.33 63.4002 214.47 63.4002H220.86H220.85Z" fill="white"/>
<path d="M241 64.1302C241 68.5702 241 70.9702 241.73 71.5902C242.32 72.1102 243.22 72.3502 245.93 72.3502C247.77 72.3502 249.12 72.3202 249.99 71.3802C250.41 70.9302 250.82 69.9602 250.89 69.3002C250.92 68.9902 250.99 68.7802 251.27 68.7802C251.51 68.7802 251.55 68.9502 251.55 69.3702C251.55 69.7502 251.31 72.3502 251.03 73.3602C250.82 74.1202 250.65 74.3002 248.84 74.3002C245.65 74.3002 242.45 74.0902 238.74 74.0902C237.35 74.0902 235.93 74.1902 234.37 74.1902C233.92 74.1902 233.68 74.0902 233.68 73.8402C233.68 73.6702 233.82 73.5602 234.24 73.5602C234.76 73.5602 235.18 73.4902 235.49 73.4202C236.18 73.2802 236.36 72.5202 236.5 71.5102C236.67 70.0502 236.67 67.3102 236.67 64.1202V58.0102C236.67 52.7402 236.67 51.7602 236.6 50.6502C236.53 49.4702 236.25 48.9102 235.11 48.6702C234.83 48.6002 234.42 48.5702 233.96 48.5702C233.58 48.5702 233.37 48.5002 233.37 48.2602C233.37 48.0202 233.61 47.9502 234.13 47.9502C235.76 47.9502 237.95 48.0502 238.88 48.0502C239.71 48.0502 242.25 47.9502 243.6 47.9502C244.09 47.9502 244.33 48.0202 244.33 48.2602C244.33 48.5002 244.12 48.5702 243.71 48.5702C243.33 48.5702 242.77 48.6002 242.36 48.6702C241.42 48.8402 241.15 49.4302 241.08 50.6502C241.01 51.7602 241.01 52.7302 241.01 58.0102V64.1202L241 64.1302Z" fill="white"/>
<path d="M289.13 71.8602C289.13 72.8002 289.1 72.8702 288.68 73.1102C286.42 74.2902 283.02 74.6702 280.32 74.6702C271.82 74.6702 264.29 70.6402 264.29 61.0702C264.29 55.5202 267.17 51.6302 270.33 49.7202C273.66 47.7102 276.75 47.4602 279.66 47.4602C282.05 47.4602 285.11 47.8802 285.8 48.0202C286.53 48.1602 287.74 48.3702 288.54 48.4002C288.96 48.4302 289.03 48.5702 289.03 48.8202C289.03 49.2002 288.79 50.1702 288.79 54.5102C288.79 55.0702 288.69 55.2402 288.41 55.2402C288.17 55.2402 288.1 55.0702 288.06 54.7902C287.96 53.9902 287.78 52.8802 286.88 51.9102C285.84 50.8002 283.06 49.2002 279.14 49.2002C277.23 49.2002 274.7 49.3402 272.27 51.3502C270.33 52.9802 269.08 55.5802 269.08 59.8502C269.08 67.3102 273.83 72.9002 281.16 72.9002C282.06 72.9002 283.28 72.9002 284.11 72.5202C284.63 72.2802 284.77 71.8302 284.77 71.2402V67.9802C284.77 66.2402 284.77 64.9302 284.74 63.8902C284.71 62.7102 284.39 62.1502 283.25 61.9102C282.97 61.8402 282.38 61.8102 281.9 61.8102C281.59 61.8102 281.38 61.7402 281.38 61.5302C281.38 61.2502 281.62 61.1802 282.11 61.1802C283.91 61.1802 286.1 61.2802 287.14 61.2802C288.18 61.2802 290.06 61.1802 291.2 61.1802C291.65 61.1802 291.89 61.2502 291.89 61.5302C291.89 61.7402 291.68 61.8102 291.44 61.8102C291.16 61.8102 290.92 61.8402 290.5 61.9102C289.56 62.0802 289.22 62.6702 289.18 63.8902C289.15 64.9302 289.15 66.3202 289.15 68.0502V71.8702L289.13 71.8602Z" fill="white"/>
<path d="M298.53 58.0202C298.53 52.7502 298.53 51.7702 298.46 50.6602C298.39 49.4802 298.11 48.9202 296.97 48.6802C296.69 48.6102 296.1 48.5802 295.62 48.5802C295.24 48.5802 295.03 48.5102 295.03 48.2702C295.03 48.0302 295.27 47.9602 295.79 47.9602C297.63 47.9602 299.82 48.0602 300.54 48.0602C301.72 48.0602 304.36 47.9602 305.43 47.9602C307.62 47.9602 309.94 48.1702 311.82 49.4502C312.79 50.1102 314.18 51.8802 314.18 54.2002C314.18 56.7702 313.14 59.0902 309.63 61.9402C312.72 65.8302 315.11 68.9502 317.16 71.1002C319.1 73.1102 320.49 73.3602 321.01 73.4602C321.39 73.5302 321.7 73.5602 321.98 73.5602C322.26 73.5602 322.4 73.6602 322.4 73.8402C322.4 74.1202 322.16 74.1902 321.74 74.1902H318.34C316.4 74.1902 315.53 74.0202 314.63 73.5302C313.14 72.7302 311.82 71.1002 309.88 68.4302C308.49 66.5202 306.9 64.1602 306.44 63.6402C306.27 63.4302 306.06 63.4002 305.82 63.4002L302.9 63.3302C302.73 63.3302 302.62 63.4002 302.62 63.6102V64.1002C302.62 67.3302 302.62 70.0702 302.79 71.5302C302.89 72.5402 303.1 73.3002 304.14 73.4402C304.66 73.5102 305.42 73.5802 305.84 73.5802C306.12 73.5802 306.26 73.6802 306.26 73.8602C306.26 74.1002 306.02 74.2102 305.57 74.2102C303.56 74.2102 300.99 74.1102 300.47 74.1102C299.81 74.1102 297.62 74.2102 296.24 74.2102C295.79 74.2102 295.55 74.1102 295.55 73.8602C295.55 73.6902 295.69 73.5802 296.11 73.5802C296.63 73.5802 297.05 73.5102 297.36 73.4402C298.05 73.3002 298.23 72.5402 298.37 71.5302C298.54 70.0702 298.54 67.3302 298.54 64.1402V58.0302L298.53 58.0202ZM302.62 60.7602C302.62 61.1402 302.69 61.2802 302.93 61.3802C303.66 61.6202 304.7 61.7302 305.57 61.7302C306.96 61.7302 307.41 61.5902 308.03 61.1402C309.07 60.3802 310.08 58.7802 310.08 55.9302C310.08 51.0002 306.82 49.5802 304.77 49.5802C303.9 49.5802 303.28 49.6102 302.93 49.7202C302.69 49.7902 302.62 49.9302 302.62 50.2102V60.7602Z" fill="white"/>
<path d="M327.29 65.1302C327.12 65.1302 327.05 65.2002 326.98 65.4102L325.11 70.3702C324.76 71.2402 324.59 72.0702 324.59 72.4902C324.59 73.1102 324.9 73.5702 325.98 73.5702H326.5C326.92 73.5702 327.02 73.6402 327.02 73.8502C327.02 74.1302 326.81 74.2002 326.43 74.2002C325.32 74.2002 323.83 74.1002 322.75 74.1002C322.37 74.1002 320.46 74.2002 318.66 74.2002C318.21 74.2002 318 74.1302 318 73.8502C318 73.6402 318.21 73.5702 318.49 73.5702C318.8 73.5702 319.22 73.5402 319.5 73.5002C321.1 73.2902 321.76 72.1102 322.45 70.3802L331.16 48.5902C331.58 47.5802 331.82 47.2002 332.13 47.2002C332.41 47.2002 332.65 47.5102 333 48.3102C333.83 50.2202 339.39 64.3802 341.61 69.6502C342.93 72.7702 343.94 73.2602 344.66 73.4302C345.18 73.5302 345.7 73.5702 346.12 73.5702C346.4 73.5702 346.57 73.6402 346.57 73.8502C346.57 74.1302 346.26 74.2002 344.97 74.2002C343.68 74.2002 340.94 74.2002 338.17 74.1302C337.55 74.1002 337.37 74.0602 337.37 73.8502C337.37 73.6802 337.51 73.5702 337.86 73.5402C338.1 73.4702 338.35 73.1602 338.17 72.7402L335.39 65.3802C335.32 65.2102 335.22 65.1402 335.04 65.1402H327.3L327.29 65.1302ZM334.37 63.4002C334.54 63.4002 334.58 63.3002 334.54 63.1902L331.42 54.6202C331.32 54.3102 331.18 54.2002 331.04 54.6202L327.85 63.1602C327.82 63.3002 327.85 63.4002 327.99 63.4002H334.38H334.37Z" fill="white"/>
<path d="M349.64 48.5402C349.64 47.8502 349.74 47.3602 350.09 47.3602C350.47 47.3602 350.78 47.8102 351.37 48.4402C351.79 48.8902 357.06 54.5502 362.13 59.5802C364.49 61.9402 369.35 67.1102 369.94 67.6702L369.59 51.9202C369.56 49.8002 369.24 49.1402 368.41 48.8002C367.89 48.5902 367.06 48.5902 366.57 48.5902C366.15 48.5902 366.01 48.4902 366.01 48.2802C366.01 48.0002 366.39 47.9702 366.91 47.9702C368.71 47.9702 370.38 48.0702 371.11 48.0702C371.49 48.0702 372.81 47.9702 374.51 47.9702C374.96 47.9702 375.31 48.0002 375.31 48.2802C375.31 48.4902 375.1 48.5902 374.69 48.5902C374.34 48.5902 374.07 48.5902 373.65 48.6902C372.68 48.9702 372.4 49.7002 372.37 51.6402C372.23 58.9602 372.13 66.2202 371.99 73.5402C371.99 74.3002 371.85 74.6202 371.54 74.6202C371.16 74.6202 370.74 74.2402 370.36 73.8602C368.17 71.7802 363.73 67.2302 360.12 63.6602C356.34 59.9102 352.38 55.4702 351.76 54.8102L352.14 69.4902C352.21 72.2002 352.66 73.1002 353.35 73.3402C353.94 73.5502 354.6 73.5802 355.15 73.5802C355.53 73.5802 355.74 73.6502 355.74 73.8602C355.74 74.1402 355.43 74.2102 354.94 74.2102C352.68 74.2102 351.3 74.1102 350.64 74.1102C350.33 74.1102 348.7 74.2102 346.89 74.2102C346.44 74.2102 346.13 74.1802 346.13 73.8602C346.13 73.6502 346.34 73.5802 346.69 73.5802C347.14 73.5802 347.77 73.5502 348.25 73.4102C349.15 73.1302 349.29 72.1302 349.33 69.1102C349.43 61.7502 349.57 53.1802 349.64 48.5702V48.5402Z" fill="white"/>
<path d="M382.7 58.0202C382.7 52.7502 382.7 51.7702 382.63 50.6602C382.56 49.4802 382.28 48.9202 381.14 48.6802C380.86 48.6102 380.27 48.5802 379.79 48.5802C379.41 48.5802 379.2 48.5102 379.2 48.2702C379.2 48.0302 379.44 47.9602 379.96 47.9602C381.8 47.9602 383.99 48.0602 384.96 48.0602C386.04 48.0602 388.22 47.9602 390.3 47.9602C394.64 47.9602 400.43 47.9602 404.22 51.9202C405.96 53.7202 407.59 56.6002 407.59 60.7302C407.59 65.1002 405.75 68.4302 403.81 70.4102C402.21 72.0402 398.6 74.5102 392.18 74.5102C390.93 74.5102 389.51 74.4102 388.19 74.3002C386.87 74.2002 385.66 74.0902 384.79 74.0902C384.41 74.0902 383.64 74.0902 382.81 74.1202C382.01 74.1202 381.11 74.1902 380.42 74.1902C379.97 74.1902 379.73 74.0902 379.73 73.8402C379.73 73.6702 379.87 73.5602 380.29 73.5602C380.81 73.5602 381.23 73.4902 381.54 73.4202C382.23 73.2802 382.41 72.5202 382.55 71.5102C382.72 70.0502 382.72 67.3102 382.72 64.1202V58.0102L382.7 58.0202ZM387.04 61.8302C387.04 65.5102 387.07 68.1802 387.11 68.8402C387.14 69.7102 387.21 71.1002 387.49 71.4802C387.94 72.1402 389.29 72.8702 392.04 72.8702C395.58 72.8702 397.94 72.1802 400.02 70.3702C402.24 68.4602 402.93 65.3002 402.93 61.7302C402.93 57.3202 401.09 54.4802 399.6 53.0502C396.41 50.0002 392.45 49.5802 389.74 49.5802C389.05 49.5802 387.76 49.6802 387.48 49.8202C387.17 49.9602 387.06 50.1302 387.06 50.5102C387.03 51.6902 387.03 54.7102 387.03 57.4502V61.8202L387.04 61.8302Z" fill="white"/>
<path d="M168.37 108.36V101.48H162.39V108.36H158.81V93.16H162.39V99.75H168.37V93.16H171.95V108.36H168.37Z" fill="white"/>
<path d="M186.61 108.72C181.62 108.72 178.46 105.58 178.46 100.91C178.46 96.24 182.23 92.79 186.76 92.79C191.77 92.79 194.93 95.95 194.93 100.65C194.93 105.35 191.13 108.73 186.61 108.73V108.72ZM191.09 100.94C191.09 96.61 189.12 94.42 186.61 94.42C184.1 94.42 182.3 96.41 182.3 100.62C182.3 104.83 184.3 107.12 186.78 107.12C189.26 107.12 191.09 105.15 191.09 100.94Z" fill="white"/>
<path d="M204.12 108.36V94.86C201.57 94.93 200.49 95.15 199.23 95.64V93.16H212.54V95.64C211.32 95.15 210.16 94.93 207.7 94.86V108.36H204.12Z" fill="white"/>
<path d="M218.33 108.36V93.16H228.84V95.62C227.65 95.13 226.53 94.89 223.9 94.89H221.9V99.88H226.79V101.51H221.9V106.64H223.9C226.53 106.64 227.65 106.4 228.84 105.91V108.37H218.33V108.36Z" fill="white"/>
<path d="M235.65 108.36V93.16H239.23V106.64H241.13C243.73 106.64 244.88 106.4 246.07 105.91V108.37H235.66L235.65 108.36Z" fill="white"/>
<path d="M132.12 98.25H0V100.12H132.12V98.25Z" fill="white"/>
<path d="M408.48 98.25H265.3V100.12H408.48V98.25Z" fill="white"/>
</svg>
