<svg width="92" height="92" viewBox="0 0 92 92" fill="none" xmlns="http://www.w3.org/2000/svg">
<path d="M41.917 66.5276C42.2706 66.9518 42.9012 67.0092 43.3255 66.6556C43.7497 66.302 43.8071 65.6715 43.4535 65.2472L42.6853 65.8874L41.917 66.5276ZM26.1123 45.9999L25.3441 45.3597C25.0351 45.7305 25.0351 46.2692 25.3441 46.64L26.1123 45.9999ZM43.4535 26.7525C43.8071 26.3282 43.7497 25.6977 43.3255 25.3441C42.9012 24.9906 42.2706 25.0479 41.9171 25.4722L42.6853 26.1123L43.4535 26.7525ZM65.8874 46.9999C66.4397 46.9999 66.8874 46.5521 66.8874 45.9999C66.8874 45.4476 66.4397 44.9999 65.8874 44.9999L65.8874 45.9999L65.8874 46.9999ZM42.6853 65.8874L43.4535 65.2472L26.8806 45.3597L26.1123 45.9999L25.3441 46.64L41.917 66.5276L42.6853 65.8874ZM26.1123 45.9999L26.8806 46.64L43.4535 26.7525L42.6853 26.1123L41.9171 25.4722L25.3441 45.3597L26.1123 45.9999ZM26.1123 45.9999L26.1123 46.9999L65.8874 46.9999L65.8874 45.9999L65.8874 44.9999L26.1123 44.9999L26.1123 45.9999ZM14.1802 77.8198L14.8873 77.1127C-2.29576 59.9296 -2.29576 32.0704 14.8873 14.8873L14.1802 14.1802L13.4731 13.4731C-4.49102 31.4372 -4.49103 60.5628 13.4731 78.5269L14.1802 77.8198ZM14.1802 14.1802L14.8873 14.8873C32.0704 -2.29577 59.9296 -2.29576 77.1127 14.8873L77.8198 14.1802L78.5269 13.4731C60.5628 -4.49103 31.4372 -4.49103 13.4731 13.4731L14.1802 14.1802ZM77.8198 14.1802L77.1127 14.8873C94.2958 32.0704 94.2958 59.9296 77.1127 77.1127L77.8198 77.8198L78.5269 78.5269C96.491 60.5628 96.491 31.4372 78.5269 13.4731L77.8198 14.1802ZM77.8198 77.8198L77.1127 77.1127C59.9296 94.2958 32.0704 94.2958 14.8873 77.1127L14.1802 77.8198L13.4731 78.5269C31.4372 96.491 60.5628 96.491 78.5269 78.5269L77.8198 77.8198Z" fill="#F9F2E8"/>
</svg>
