<svg width="92" height="92" viewBox="0 0 92 92" fill="none" xmlns="http://www.w3.org/2000/svg">
<path d="M50.083 25.4724C49.7294 25.0482 49.0988 24.9908 48.6745 25.3444C48.2503 25.698 48.1929 26.3285 48.5465 26.7528L49.3147 26.1126L50.083 25.4724ZM65.8877 46.0001L66.6559 46.6403C66.9649 46.2695 66.9649 45.7308 66.6559 45.36L65.8877 46.0001ZM48.5465 65.2475C48.1929 65.6718 48.2503 66.3023 48.6745 66.6559C49.0988 67.0094 49.7294 66.9521 50.083 66.5278L49.3147 65.8877L48.5465 65.2475ZM26.1126 45.0001C25.5603 45.0001 25.1126 45.4478 25.1126 46.0001C25.1126 46.5524 25.5603 47.0001 26.1126 47.0001V46.0001L26.1126 45.0001ZM49.3147 26.1126L48.5465 26.7528L65.1194 46.6403L65.8877 46.0001L66.6559 45.36L50.083 25.4724L49.3147 26.1126ZM65.8877 46.0001L65.1194 45.36L48.5465 65.2475L49.3147 65.8877L50.083 66.5278L66.6559 46.6403L65.8877 46.0001ZM65.8877 46.0001V45.0001L26.1126 45.0001L26.1126 46.0001V47.0001L65.8877 47.0001V46.0001ZM77.8198 14.1802L77.1127 14.8873C94.2958 32.0704 94.2958 59.9296 77.1127 77.1127L77.8198 77.8198L78.5269 78.5269C96.491 60.5628 96.491 31.4372 78.5269 13.4731L77.8198 14.1802ZM77.8198 77.8198L77.1127 77.1127C59.9296 94.2958 32.0704 94.2958 14.8873 77.1127L14.1802 77.8198L13.4731 78.5269C31.4372 96.491 60.5628 96.491 78.5269 78.5269L77.8198 77.8198ZM14.1802 77.8198L14.8873 77.1127C-2.29577 59.9296 -2.29577 32.0704 14.8873 14.8873L14.1802 14.1802L13.4731 13.4731C-4.49103 31.4372 -4.49103 60.5628 13.4731 78.5269L14.1802 77.8198ZM14.1802 14.1802L14.8873 14.8873C32.0704 -2.29577 59.9296 -2.29577 77.1127 14.8873L77.8198 14.1802L78.5269 13.4731C60.5628 -4.49103 31.4372 -4.49103 13.4731 13.4731L14.1802 14.1802Z" fill="#F9F2E8"/>
</svg>
